<svg xmlns="http://www.w3.org/2000/svg" width="91" height="27" viewBox="0 0 91 27">
	<style type="text/css">
		.st0{fill:#393646;}
		.st1{fill:#15BE60;}
	</style>
	<g>
		<path class="st0" d="M11.4,9.9H9.7c-0.3,0-0.6,0.3-0.6,0.6v11c0,0.3,0.3,0.6,0.6,0.6h1.8c0.3,0,0.6-0.3,0.6-0.6v-11
		C12,10.1,11.8,9.9,11.4,9.9z"/>
		<path class="st0" d="M33.3,9.5c-3.5,0.1-6.3,2.9-6.3,6.4c0,0.1,0,0.1,0,0.2c0.1,3.5,3,6.3,6.6,6.3c3.5-0.1,6.3-3,6.3-6.6
		C39.8,12.3,36.8,9.5,33.3,9.5z M33.3,19.7L33.3,19.7L33.3,19.7c-2-0.1-3.6-1.8-3.5-3.8c0-0.1,0-0.3,0-0.4c0.1-1.9,1.8-3.4,3.7-3.3
		s3.4,1.8,3.3,3.7l0,0C36.9,17.9,35.3,19.7,33.3,19.7z"/>
		<path class="st0" d="M4.9,9.3H3.2l0,0H0.6C0.3,9.3,0,9.5,0,9.9v1.7c0,0.3,0.3,0.6,0.6,0.6l0,0h2v10c0,0,0,0,0,0.1l0,0
		c0,1-0.8,1.8-1.8,1.8l0,0H0.6c-0.3,0-0.6,0.3-0.6,0.6v1.7C0,26.7,0.3,27,0.6,27h0.1l0,0c2.6,0,4.8-2.1,4.8-4.7l0,0c0,0,0,0,0-0.1
		V9.9C5.5,9.5,5.2,9.3,4.9,9.3z"/>
		<path class="st0" d="M25.6,9.9h-1.4c-0.3-0.1-0.7,0.1-0.8,0.3L20,17.4l0,0l-3.2-7.2c-0.1-0.2-0.3-0.4-0.6-0.3h-1.8
		c-0.1,0-0.2,0-0.3,0.1c-0.2,0.1-0.3,0.4-0.1,0.6l5.5,11.5c0.1,0.2,0.3,0.3,0.5,0.3h0.2c0.2,0,0.4-0.1,0.5-0.3l5.5-11.5
		c0.1-0.1,0.1-0.2,0.1-0.3C26.1,10,25.9,9.8,25.6,9.9z"/>
		<path class="st0" d="M75.3,9.5c-1.5,0-2.9,0.2-4.3,0.7l0,0c-0.3,0.1-0.4,0.4-0.4,0.7l0.2,1.1v0.1c0.1,0.3,0.4,0.5,0.7,0.4
		c1.1-0.3,2.3-0.5,3.5-0.5c1.6,0,2,0.8,1.9,2.7c-0.8-0.2-1.6-0.4-2.4-0.4l0,0c-3.2,0-5,1.7-5,3.9c0,0.2,0,0.3,0,0.5
		c0.1,2.1,1.9,3.7,4,3.6c1.4,0,2.8-0.6,3.8-1.6l0.3,0.8c0,0.3,0.3,0.4,0.5,0.4H79c0.3,0,0.6-0.3,0.6-0.6V15
		C79.6,11.9,79.3,9.5,75.3,9.5z M76.9,18.7c-0.7,0.9-1.7,1.5-2.8,1.5l0,0c-0.1,0-0.1,0-0.2,0c-1-0.1-1.8-0.9-1.7-1.9
		c0-1.3,1-2,2.5-2c0.8,0,1.5,0.2,2.2,0.5V18.7z"/>
		<path class="st0" d="M47.8,9.5L47.8,9.5L47.8,9.5z"/>
		<path class="st0" d="M90.9,20.7l-0.6-1.3c0-0.1,0-0.1-0.1-0.1c-0.1-0.2-0.4-0.3-0.6-0.1c-0.6,0.3-1.2,0.5-1.9,0.5
		c-0.6,0-1-0.2-1-1.2v-6h3.2l0,0c0.3,0,0.6-0.3,0.6-0.6v-1.4l0,0c0-0.3-0.3-0.6-0.6-0.5h-3.2V6.4c0-0.3-0.2-0.6-0.6-0.6h-1.8
		c-0.3,0-0.6,0.3-0.6,0.6v3.4h-1.3l0,0c-0.3,0-0.6,0.3-0.6,0.6v1.4l0,0c0,0.3,0.3,0.6,0.6,0.6h1.3l0,0v6.3c0,2.2,0.7,3.6,3.2,3.6
		c1.3-0.1,2.5-0.4,3.6-0.9h0.1C91,21.2,91.1,20.9,90.9,20.7z"/>
		<path class="st0" d="M61.9,9.5c-1.3,0-2.6,0.5-3.7,1.3V3.6c0-0.3-0.3-0.6-0.6-0.6h-1.8c-0.3,0-0.6,0.3-0.6,0.6l0,0v17.8
		c0,0.3,0.3,0.6,0.6,0.6h1.8h0.1c0.3,0,0.5-0.3,0.5-0.6v-7.3c0.7-1.2,2-1.9,3.3-1.9c1.6,0,2.6,1.1,2.6,3.1v6.2l0,0
		c0,0.3,0.3,0.6,0.6,0.6h1.7c0.3,0,0.6-0.3,0.6-0.6v-6.1C67,12,65.4,9.5,61.9,9.5z"/>
		<path class="st0" d="M52.3,18.9l-0.8-0.7l0,0c-0.2-0.2-0.6-0.2-0.8,0.1c-0.7,0.9-1.8,1.4-2.9,1.4c-1.9-0.1-3.5-1.7-3.6-3.6
		c-0.1-2.1,1.5-3.8,3.6-3.9c0.9,0,1.8,0.5,2.5,1.2c0.2,0.2,0.5,0.5,0.8,0.1l1-0.9l0,0c0.3-0.2,0.3-0.6,0.1-0.8
		c-1.1-1.4-2.7-2.2-4.5-2.2c-3.6,0-6.4,2.9-6.5,6.4l0,0c0,3.5,2.9,6.4,6.5,6.3c1.9,0,3.8-0.9,4.8-2.6c0,0,0,0,0-0.1
		C52.7,19.4,52.6,19.1,52.3,18.9z"/>
	</g>
	<path class="st1" d="M0.2,0c-0.3,6.6,5,7.5,5,7.5C4.9,0.3,0.2,0,0.2,0z"/>
</svg>
